<?xml version="1.0" standalone="no"?>
<!DOCTYPE svg PUBLIC "-//W3C//DTD SVG 20010904//EN"
 "http://www.w3.org/TR/2001/REC-SVG-20010904/DTD/svg10.dtd">
<svg version="1.0" xmlns="http://www.w3.org/2000/svg"
 width="499.000000pt" height="499.000000pt" viewBox="0 0 499.000000 499.000000"
 preserveAspectRatio="xMidYMid meet">

<g transform="translate(0.000000,499.000000) scale(0.100000,-0.100000)"
fill="#d92525" stroke="none">
<path d="M171 4476 c2 -2 29 -22 59 -44 133 -99 396 -297 544 -412 230 -178
308 -238 372 -284 12 -8 30 -44 43 -88 52 -167 84 -267 105 -333 13 -38 37
-115 54 -170 17 -55 58 -185 91 -290 33 -104 99 -316 146 -470 48 -154 99
-320 115 -370 28 -86 120 -379 162 -515 11 -36 30 -96 43 -135 12 -38 33 -104
45 -145 12 -41 35 -113 50 -160 53 -161 148 -465 170 -540 12 -41 37 -119 55
-173 l32 -98 6 53 c4 29 11 82 16 118 5 36 19 144 30 240 12 96 25 200 31 231
5 30 10 70 10 89 0 19 5 59 10 89 9 50 37 250 56 401 6 51 11 59 93 145 47 50
106 113 130 140 25 28 74 82 110 120 36 39 93 100 126 135 32 36 91 99 130
140 38 41 111 120 160 175 114 127 218 240 309 335 40 41 110 118 156 170 112
126 287 318 369 405 37 39 109 117 161 175 157 174 310 340 400 435 240 253
309 329 305 333 -5 5 -47 -11 -129 -50 -33 -15 -64 -28 -69 -28 -6 0 -33 -11
-61 -23 -28 -13 -85 -38 -126 -55 -41 -17 -124 -52 -185 -77 -60 -26 -127 -54
-148 -61 -22 -8 -56 -23 -78 -34 -21 -11 -43 -20 -48 -20 -6 0 -38 -13 -73
-29 -35 -16 -105 -46 -156 -66 -100 -41 -105 -41 -237 -4 -16 4 -75 17 -130
29 -55 11 -127 27 -160 35 -51 12 -249 56 -750 166 -49 11 -106 24 -127 30
-20 5 -78 18 -130 29 -161 35 -609 134 -673 150 -22 5 -175 39 -340 75 -165
36 -356 79 -425 94 -69 16 -161 37 -205 46 -44 10 -107 24 -140 32 -33 8 -80
19 -105 23 -25 4 -71 15 -103 24 -54 15 -106 21 -96 12z m1598 -1027 c34 -12
39 -25 43 -109 l3 -55 123 -5 c136 -6 142 -8 142 -72 0 -58 -23 -68 -152 -68
l-108 0 0 -245 c0 -240 0 -245 -21 -256 -26 -13 -105 -7 -122 10 -8 8 -14 88
-17 249 l-5 237 -32 5 c-18 3 -42 13 -53 22 -43 37 -10 108 50 108 l30 0 0 68
c0 77 16 108 58 115 15 2 27 5 28 6 1 0 15 -4 33 -10z m570 -6 c5 -10 12 -48
16 -85 l7 -68 118 0 c94 0 122 -3 134 -16 20 -20 20 -63 0 -92 -14 -20 -24
-22 -103 -22 -49 0 -102 -3 -119 -6 l-30 -6 5 -232 c5 -264 5 -265 -69 -273
-37 -4 -49 -2 -67 16 -18 18 -21 33 -21 99 0 42 -3 147 -7 233 l-6 157 -40 5
c-44 6 -57 19 -57 57 0 39 26 68 63 72 l32 3 3 75 c3 88 13 100 84 100 35 0
50 -5 57 -17z m765 -152 c20 -17 29 -66 17 -90 -16 -29 -44 -35 -163 -35 -96
-1 -110 -3 -129 -23 -28 -28 -20 -70 16 -79 13 -3 127 -7 252 -8 l228 -1 60
-31 c51 -26 62 -36 77 -75 48 -124 -8 -243 -127 -273 -38 -10 -602 -28 -633
-21 -33 8 -48 47 -32 84 6 16 19 33 28 36 23 9 133 15 367 18 227 4 245 8 245
62 0 61 -16 65 -255 65 -241 0 -297 10 -351 64 -60 60 -69 175 -18 235 37 44
122 73 239 81 122 8 160 6 179 -9z"/>
</g>
</svg>
